<svg xmlns="http://www.w3.org/2000/svg" xmlns:xlink="http://www.w3.org/1999/xlink" width="500" zoomAndPan="magnify" viewBox="0 0 375 374.999991" height="500" preserveAspectRatio="xMidYMid meet" version="1.2"><defs><clipPath id="c73168b524"><path d="M 58 76 L 273 76 L 273 325.496094 L 58 325.496094 Z M 58 76 "/></clipPath><clipPath id="5cc48622e3"><path d="M 128 224 L 203 224 L 203 325.496094 L 128 325.496094 Z M 128 224 "/></clipPath><clipPath id="32962bd3eb"><path d="M 27.265625 53 L 304 53 L 304 155 L 27.265625 155 Z M 27.265625 53 "/></clipPath><clipPath id="baf6c74d14"><path d="M 237 49.496094 L 295 49.496094 L 295 76 L 237 76 Z M 237 49.496094 "/></clipPath><clipPath id="15511ac574"><path d="M 264 171 L 347.515625 171 L 347.515625 325.496094 L 264 325.496094 Z M 264 171 "/></clipPath><clipPath id="afecee1a65"><path d="M 31 294 L 94 294 L 94 325.496094 L 31 325.496094 Z M 31 294 "/></clipPath><clipPath id="d68357edec"><path d="M 27.265625 202 L 98 202 L 98 308 L 27.265625 308 Z M 27.265625 202 "/></clipPath><clipPath id="044d57ba67"><path d="M 128 224 L 192 224 L 192 325.496094 L 128 325.496094 Z M 128 224 "/></clipPath></defs><g id="0e7b5c5ebe"><rect x="0" width="375" y="0" height="374.999991" style="fill:#ffffff;fill-opacity:1;stroke:none;"/><rect x="0" width="375" y="0" height="374.999991" style="fill:#ffffff;fill-opacity:1;stroke:none;"/><path style=" stroke:none;fill-rule:evenodd;fill:#ebebeb;fill-opacity:1;" d="M 277.3125 119.03125 L 255.378906 107.695312 C 252.980469 107.695312 251.035156 105.75 251.035156 103.347656 L 251.035156 71.347656 C 251.035156 68.949219 252.980469 67 255.378906 67 L 277.3125 67 C 279.714844 67 281.660156 68.949219 281.660156 71.347656 L 281.660156 114.679688 C 281.660156 117.082031 279.714844 119.03125 277.3125 119.03125 Z M 277.3125 119.03125 "/><g clip-rule="nonzero" clip-path="url(#c73168b524)"><path style=" stroke:none;fill-rule:evenodd;fill:#ebebeb;fill-opacity:1;" d="M 268.539062 325.339844 L 62.367188 325.339844 C 59.96875 325.339844 58.023438 323.390625 58.023438 320.988281 C 58.023438 320.757812 58.039062 320.527344 58.074219 320.304688 C 58.039062 320.082031 58.023438 319.851562 58.023438 319.621094 L 58.023438 133.410156 L 163.75 76.894531 L 268.539062 132.28125 C 270.9375 132.28125 272.886719 134.226562 272.886719 136.628906 L 272.886719 320.988281 C 272.886719 323.390625 270.9375 325.339844 268.539062 325.339844 Z M 268.539062 325.339844 "/></g><g clip-rule="nonzero" clip-path="url(#5cc48622e3)"><path style=" stroke:none;fill-rule:evenodd;fill:#d18a56;fill-opacity:1;" d="M 202.699219 325.339844 L 128.207031 325.339844 L 128.207031 261.425781 C 128.207031 241.042969 144.777344 224.460938 165.148438 224.460938 L 165.761719 224.460938 C 186.128906 224.460938 202.699219 241.042969 202.699219 261.425781 Z M 202.699219 325.339844 "/></g><path style=" stroke:none;fill-rule:evenodd;fill:#dedede;fill-opacity:1;" d="M 58.023438 147.273438 L 58.023438 133.410156 L 163.75 76.894531 L 268.539062 132.28125 C 270.9375 132.28125 272.886719 134.226562 272.886719 136.628906 L 272.886719 147.648438 L 163.339844 91.070312 Z M 58.023438 147.273438 "/><g clip-rule="nonzero" clip-path="url(#32962bd3eb)"><path style=" stroke:none;fill-rule:evenodd;fill:#ef5350;fill-opacity:1;" d="M 299.246094 154.144531 C 298.5625 154.144531 297.878906 153.984375 297.253906 153.660156 L 163.296875 84.476562 L 33.707031 153.632812 C 32.359375 154.351562 30.734375 154.3125 29.425781 153.527344 C 28.117188 152.738281 27.316406 151.324219 27.316406 149.796875 L 27.316406 127.847656 C 27.316406 126.242188 28.199219 124.769531 29.617188 124.011719 L 161.214844 53.78125 C 162.476562 53.105469 163.984375 53.097656 165.253906 53.753906 L 301.238281 123.984375 C 302.683594 124.730469 303.59375 126.222656 303.59375 127.847656 L 303.59375 149.796875 C 303.59375 151.3125 302.800781 152.722656 301.507812 153.511719 C 300.816406 153.933594 300.03125 154.144531 299.246094 154.144531 Z M 299.246094 154.144531 "/></g><path style=" stroke:none;fill-rule:evenodd;fill:#ef5350;fill-opacity:1;" d="M 246.605469 211.210938 L 193.964844 211.210938 C 191.566406 211.210938 189.621094 209.261719 189.621094 206.859375 L 189.621094 154.1875 C 189.621094 151.785156 191.566406 149.839844 193.964844 149.839844 L 246.605469 149.839844 C 249.003906 149.839844 250.953125 151.785156 250.953125 154.1875 L 250.953125 206.859375 C 250.953125 209.261719 249.003906 211.210938 246.605469 211.210938 Z M 246.605469 211.210938 "/><g clip-rule="nonzero" clip-path="url(#baf6c74d14)"><path style=" stroke:none;fill-rule:evenodd;fill:#ef5350;fill-opacity:1;" d="M 290.472656 75.699219 L 242.21875 75.699219 C 239.820312 75.699219 237.875 73.75 237.875 71.347656 L 237.875 53.789062 C 237.875 51.390625 239.820312 49.441406 242.21875 49.441406 L 290.472656 49.441406 C 292.871094 49.441406 294.816406 51.390625 294.816406 53.789062 L 294.816406 71.347656 C 294.816406 73.75 292.871094 75.699219 290.472656 75.699219 Z M 290.472656 75.699219 "/></g><g clip-rule="nonzero" clip-path="url(#15511ac574)"><path style=" stroke:none;fill-rule:evenodd;fill:#7dcdf9;fill-opacity:1;" d="M 343.113281 325.339844 L 268.539062 325.339844 C 266.140625 325.339844 264.195312 323.390625 264.195312 320.988281 L 264.195312 206.863281 C 264.195312 205.609375 264.734375 204.414062 265.679688 203.589844 L 300.773438 172.863281 C 302.339844 171.492188 304.660156 171.421875 306.300781 172.703125 L 345.78125 203.429688 C 346.839844 204.253906 347.460938 205.519531 347.460938 206.859375 L 347.460938 320.988281 C 347.457031 323.390625 345.511719 325.339844 343.113281 325.339844 Z M 343.113281 325.339844 "/></g><path style=" stroke:none;fill-rule:evenodd;fill:#f3fbfb;fill-opacity:1;" d="M 325.566406 294.609375 L 286.085938 294.609375 C 283.6875 294.609375 281.742188 292.664062 281.742188 290.261719 C 281.742188 287.859375 283.6875 285.914062 286.085938 285.914062 L 325.566406 285.914062 C 327.964844 285.914062 329.910156 287.859375 329.910156 290.261719 C 329.910156 292.664062 327.964844 294.609375 325.566406 294.609375 Z M 325.566406 294.609375 "/><path style=" stroke:none;fill-rule:evenodd;fill:#f3fbfb;fill-opacity:1;" d="M 325.566406 277.050781 L 286.085938 277.050781 C 283.6875 277.050781 281.742188 275.105469 281.742188 272.703125 C 281.742188 270.300781 283.6875 268.355469 286.085938 268.355469 L 325.566406 268.355469 C 327.964844 268.355469 329.910156 270.300781 329.910156 272.703125 C 329.910156 275.105469 327.964844 277.050781 325.566406 277.050781 Z M 325.566406 277.050781 "/><path style=" stroke:none;fill-rule:evenodd;fill:#f3fbfb;fill-opacity:1;" d="M 325.566406 259.492188 L 286.085938 259.492188 C 283.6875 259.492188 281.742188 257.546875 281.742188 255.144531 C 281.742188 252.742188 283.6875 250.796875 286.085938 250.796875 L 325.566406 250.796875 C 327.964844 250.796875 329.910156 252.742188 329.910156 255.144531 C 329.910156 257.546875 327.964844 259.492188 325.566406 259.492188 Z M 325.566406 259.492188 "/><path style=" stroke:none;fill-rule:evenodd;fill:#f3fbfb;fill-opacity:1;" d="M 325.566406 241.9375 L 286.085938 241.9375 C 283.6875 241.9375 281.742188 239.988281 281.742188 237.589844 C 281.742188 235.1875 283.6875 233.238281 286.085938 233.238281 L 325.566406 233.238281 C 327.964844 233.238281 329.910156 235.1875 329.910156 237.589844 C 329.910156 239.988281 327.964844 241.9375 325.566406 241.9375 Z M 325.566406 241.9375 "/><path style=" stroke:none;fill-rule:evenodd;fill:#ef5350;fill-opacity:1;" d="M 163.261719 159.046875 C 147.96875 159.046875 135.53125 146.605469 135.53125 131.300781 C 135.53125 116 147.96875 103.554688 163.261719 103.554688 C 178.554688 103.554688 190.988281 116 190.988281 131.300781 C 190.988281 146.605469 178.550781 159.046875 163.261719 159.046875 Z M 163.261719 159.046875 "/><path style=" stroke:none;fill-rule:evenodd;fill:#fbfbfb;fill-opacity:1;" d="M 163.261719 151.75 C 151.992188 151.75 142.824219 142.578125 142.824219 131.300781 C 142.824219 120.027344 151.992188 110.851562 163.261719 110.851562 C 174.527344 110.851562 183.695312 120.027344 183.695312 131.300781 C 183.695312 142.578125 174.527344 151.75 163.261719 151.75 Z M 163.261719 151.75 "/><g clip-rule="nonzero" clip-path="url(#afecee1a65)"><path style=" stroke:none;fill-rule:evenodd;fill:#8bc34a;fill-opacity:1;" d="M 62.367188 325.339844 C 47.128906 325.339844 31.703125 320.074219 31.703125 310.015625 C 31.703125 301.089844 44.71875 296 57.621094 294.917969 C 58.484375 294.851562 66.230469 294.847656 67.117188 294.917969 C 80.019531 296 93.035156 301.085938 93.035156 310.015625 C 93.035156 320.074219 77.605469 325.339844 62.367188 325.339844 Z M 62.367188 325.339844 "/></g><path style=" stroke:none;fill-rule:evenodd;fill:#7dcdf9;fill-opacity:1;" d="M 198.3125 158.535156 L 242.261719 158.535156 L 242.261719 202.511719 L 198.3125 202.511719 Z M 198.3125 158.535156 "/><path style=" stroke:none;fill-rule:evenodd;fill:#ef5350;fill-opacity:1;" d="M 246.605469 184.871094 L 193.964844 184.871094 C 191.566406 184.871094 189.621094 182.925781 189.621094 180.523438 C 189.621094 178.121094 191.566406 176.175781 193.964844 176.175781 L 246.605469 176.175781 C 249.003906 176.175781 250.953125 178.121094 250.953125 180.523438 C 250.953125 182.925781 249.003906 184.871094 246.605469 184.871094 Z M 246.605469 184.871094 "/><path style=" stroke:none;fill-rule:evenodd;fill:#ef5350;fill-opacity:1;" d="M 220.285156 211.210938 C 217.886719 211.210938 215.941406 209.261719 215.941406 206.859375 L 215.941406 154.1875 C 215.941406 151.785156 217.886719 149.839844 220.285156 149.839844 C 222.6875 149.839844 224.632812 151.785156 224.632812 154.1875 L 224.632812 206.859375 C 224.632812 209.261719 222.6875 211.210938 220.285156 211.210938 Z M 220.285156 211.210938 "/><g clip-rule="nonzero" clip-path="url(#d68357edec)"><path style=" stroke:none;fill-rule:evenodd;fill:#ef5350;fill-opacity:1;" d="M 62.367188 307.78125 C 60.875 307.78125 59.484375 307.011719 58.6875 305.746094 C 55.476562 300.632812 27.316406 255.300781 27.316406 237.589844 C 27.316406 218.246094 43.039062 202.511719 62.367188 202.511719 C 81.695312 202.511719 97.421875 218.246094 97.421875 237.589844 C 97.421875 255.300781 69.257812 300.632812 66.046875 305.746094 C 65.253906 307.011719 63.863281 307.78125 62.367188 307.78125 Z M 62.367188 307.78125 "/></g><path style=" stroke:none;fill-rule:evenodd;fill:#ffffff;fill-opacity:1;" d="M 62.367188 255.105469 C 52.714844 255.105469 44.863281 247.246094 44.863281 237.585938 C 44.863281 227.925781 52.714844 220.070312 62.367188 220.070312 C 72.019531 220.070312 79.875 227.925781 79.875 237.585938 C 79.875 247.246094 72.019531 255.105469 62.367188 255.105469 Z M 62.367188 255.105469 "/><g clip-rule="nonzero" clip-path="url(#044d57ba67)"><path style=" stroke:none;fill-rule:evenodd;fill:#c9804c;fill-opacity:1;" d="M 165.148438 224.460938 C 144.777344 224.460938 128.207031 241.042969 128.207031 261.425781 L 128.207031 325.339844 L 137.933594 325.339844 L 137.933594 268.238281 C 137.933594 247.855469 154.503906 231.273438 174.875 231.273438 L 175.484375 231.273438 C 181.214844 231.273438 186.644531 232.585938 191.488281 234.925781 C 184.832031 228.453125 175.753906 224.460938 165.761719 224.460938 Z M 165.148438 224.460938 "/></g></g></svg>