<?xml version="1.0" encoding="UTF-8"?>
<svg version="1.1" xmlns="http://www.w3.org/2000/svg" width="1024" height="1024">
<path d="M0 0 C0.69218124 -0.0049649 1.38436249 -0.00992981 2.09751892 -0.01504517 C4.35791052 -0.02949768 6.61823216 -0.03643737 8.87866211 -0.04199219 C10.04606839 -0.04623325 10.04606839 -0.04623325 11.23705864 -0.05056 C15.34944872 -0.06547767 19.46180433 -0.07475606 23.57421875 -0.07910156 C27.80634605 -0.08459955 32.03815382 -0.10867654 36.2701807 -0.13707352 C39.54138609 -0.15573945 42.81251471 -0.16090742 46.08376884 -0.16243744 C47.64380085 -0.1654516 49.20383191 -0.17343808 50.76381111 -0.18662262 C52.94825553 -0.20377969 55.13192082 -0.2017808 57.31640625 -0.1953125 C58.5558046 -0.19895813 59.79520294 -0.20260376 61.07215881 -0.20635986 C65.23366156 0.22794035 67.87570379 1.27120865 71.59350586 3.16113281 C73.40911183 5.47409893 73.6001767 6.64664406 73.56225586 9.57128906 C71.67824229 20.23166582 66.73464026 29.88044351 58.59350586 37.16113281 C48.78771767 43.88118346 38.74656305 45.27977028 27.10913086 45.33691406 C25.26797364 45.36011628 23.42682778 45.38423378 21.58569336 45.40917969 C18.71810311 45.44418015 15.8509316 45.47359795 12.9831543 45.48706055 C-0.69597847 45.56363165 -12.4456642 45.89393531 -23.40258789 55.12597656 C-30.68746548 62.52445848 -34.20775015 72.16368831 -34.50024414 82.46191406 C-34.02445965 92.58422906 -31.45399874 100.99565331 -24.36743164 108.41113281 C-16.66788805 115.28243865 -6.67065947 118.00759695 3.55053711 118.22363281 C10.11010102 117.77319066 16.32748992 116.08820541 22.59350586 114.16113281 C20.76858837 128.24785544 8.30066028 143.28060728 -2.40649414 152.16113281 C-15.2098069 161.09732253 -15.2098069 161.09732253 -24.40649414 160.16113281 C-42.94421635 155.9531836 -59.42366469 140.7477546 -69.40649414 125.16113281 C-80.67799335 105.98127777 -84.17148738 82.30436435 -78.90649414 60.59863281 C-75.25510163 48.30732564 -69.05096015 35.73903881 -60.40649414 26.16113281 C-59.74649414 26.16113281 -59.08649414 26.16113281 -58.40649414 26.16113281 C-58.17188477 25.58878906 -57.93727539 25.01644531 -57.69555664 24.42675781 C-51.13951723 12.90402188 -34.00187707 6.32761615 -21.90649414 2.72363281 C-14.6306128 0.75455328 -7.51550171 0.04137729 0 0 Z " fill="#FEFEFE" transform="translate(361.406494140625,423.8388671875)"/>
<path d="M0 0 C1.24426758 0.0141394 1.24426758 0.0141394 2.51367188 0.02856445 C6.7423497 0.21525236 8.54558389 0.52590429 12 3.1796875 C17.9211228 11.15932565 15.70638069 26.02199319 14.50390625 35.39453125 C11.55609943 54.17290547 2.30035446 70.44370069 -13 81.875 C-30.87398516 94.09352405 -49.96254814 94.53960966 -71 93.875 C-70.67 92.885 -70.34 91.895 -70 90.875 C-67.62890625 89.76953125 -67.62890625 89.76953125 -64.5625 88.6875 C-57.99761747 86.08646707 -53.20233752 82.59319443 -48 77.875 C-47.28972656 77.2459375 -46.57945312 76.616875 -45.84765625 75.96875 C-40.4687168 70.93051113 -36.66829323 65.2383658 -33 58.875 C-32.5978125 58.1840625 -32.195625 57.493125 -31.78125 56.78125 C-28.88716878 51.43158471 -27.42849217 45.76211925 -26 39.875 C-26.75925781 39.74609375 -27.51851563 39.6171875 -28.30078125 39.484375 C-31.90119811 38.67154572 -34.12800954 37.17259237 -37 34.875 C-39.44808238 30.44198596 -39.34712605 26.05819372 -39.3125 21.125 C-39.30621582 19.92327148 -39.30621582 19.92327148 -39.29980469 18.69726562 C-39.18857596 12.88023979 -38.63731605 8.1496321 -36 2.875 C-33.25251791 1.09882421 -30.95545931 0.5929637 -27.71875 0.42578125 C-26.88601563 0.38146973 -26.05328125 0.3371582 -25.1953125 0.29150391 C-23.86113281 0.24002197 -23.86113281 0.24002197 -22.5 0.1875 C-21.11941406 0.13215088 -21.11941406 0.13215088 -19.7109375 0.07568359 C-13.13708417 -0.14262387 -6.57477012 -0.19398754 0 0 Z M-30 37.875 C-30 38.205 -30 38.535 -30 38.875 C-28.35 38.875 -26.7 38.875 -25 38.875 C-25 38.545 -25 38.215 -25 37.875 C-26.65 37.875 -28.3 37.875 -30 37.875 Z " fill="#FDFEFD" transform="translate(423,492.125)"/>
<path d="M0 0 C12.03112792 -1.45685334 12.03112792 -1.45685334 16.40332031 1.77832031 C18.39418953 4.29706371 20.02610693 6.84145492 21.625 9.625 C22.19605469 10.52863281 22.76710938 11.43226563 23.35546875 12.36328125 C24.45197375 14.10598641 25.52897714 15.86116468 26.58300781 17.62988281 C28.29363145 20.49113959 30.12392312 23.24537004 32 26 C33.74506615 24.25493385 33.23282784 21.80960857 33.31640625 19.43359375 C33.37924805 17.7465332 33.37924805 17.7465332 33.44335938 16.02539062 C33.48267578 14.84138672 33.52199219 13.65738281 33.5625 12.4375 C33.62727539 10.65569336 33.62727539 10.65569336 33.69335938 8.83789062 C33.79983546 5.89205216 33.90184841 2.9461257 34 0 C36.14576637 -0.02685938 38.29162645 -0.04633088 40.4375 -0.0625 C41.63246094 -0.07410156 42.82742188 -0.08570313 44.05859375 -0.09765625 C47 0 47 0 48 1 C48.09353163 2.68801985 48.11744791 4.37995207 48.11352539 6.07055664 C48.11344986 7.15160172 48.11337433 8.23264679 48.11329651 9.34645081 C48.10813522 10.5224736 48.10297394 11.6984964 48.09765625 12.91015625 C48.0962413 14.10732773 48.09482635 15.30449921 48.09336853 16.53794861 C48.08774979 20.37949066 48.07519411 24.22097543 48.0625 28.0625 C48.05748741 30.65950437 48.05292409 33.25650965 48.04882812 35.85351562 C48.03777427 42.23569679 48.02101792 48.6178443 48 55 C45.90950789 55.09605722 43.81774895 55.16483014 41.72583008 55.22192383 C39.97886589 55.28371574 39.97886589 55.28371574 38.1966095 55.34675598 C35 55 35 55 32.86076355 53.35514832 C31.21348377 51.22522714 29.94508408 49.06799475 28.6875 46.6875 C24.44900153 39.41538646 20.01379353 32.8939661 15 26 C14.67 35.57 14.34 45.14 14 55 C11.02119115 55.99293628 8.98398802 56.13406411 5.875 56.125 C4.98554687 56.12757813 4.09609375 56.13015625 3.1796875 56.1328125 C1 56 1 56 0 55 C-0.0935919 53.28134591 -0.11744611 51.55884256 -0.11352539 49.83764648 C-0.11344986 48.73658066 -0.11337433 47.63551483 -0.11329651 46.50108337 C-0.10813522 45.3031868 -0.10297394 44.10529022 -0.09765625 42.87109375 C-0.0962413 41.65172623 -0.09482635 40.4323587 -0.09336853 39.17604065 C-0.08774967 35.2631693 -0.07519396 31.35035419 -0.0625 27.4375 C-0.05748743 24.79231853 -0.0529241 22.14713617 -0.04882812 19.50195312 C-0.03777411 13.00128274 -0.02101764 6.50064539 0 0 Z M33 27 C34 29 34 29 34 29 Z " fill="#FCFCFC" transform="translate(594,431)"/>
<path d="M0 0 C5.01974134 4.29332237 7.78582747 8.52441317 9 15 C5.91915045 15.85659135 2.93207999 16.26941369 -0.25 16.5625 C-1.14203125 16.64628906 -2.0340625 16.73007812 -2.953125 16.81640625 C-3.62859375 16.87699219 -4.3040625 16.93757813 -5 17 C-5.42925781 16.06414062 -5.42925781 16.06414062 -5.8671875 15.109375 C-7.45567285 12.15150572 -8.92631121 11.33638643 -12 10 C-17.10257327 9.35205419 -18.95752327 9.36293089 -23.375 12.0625 C-26.84150069 15.94167934 -28.09943524 19.06168852 -27.921875 24.30859375 C-27.56178724 27.9634845 -26.93780238 31.44917561 -26 35 C-25.34 35 -24.68 35 -24 35 C-24 35.66 -24 36.32 -24 37 C-17.46060483 38.78808074 -17.46060483 38.78808074 -10.875 38.125 C-10.25625 37.75375 -9.6375 37.3825 -9 37 C-9 35.35 -9 33.7 -9 32 C-11.31 32 -13.62 32 -16 32 C-16.33 28.37 -16.66 24.74 -17 21 C-8.42 21 0.16 21 9 21 C10.52328464 28.61642319 10.55560141 35.24112762 6.25 41.9375 C1.50943951 48.22462633 -3.35270314 51.27560953 -11 53 C-19.03998088 54.02579066 -25.91928277 51.65969655 -33 48 C-33 47.34 -33 46.68 -33 46 C-33.60457031 45.77054687 -34.20914063 45.54109375 -34.83203125 45.3046875 C-37.60977614 43.63303562 -38.31753795 42.03778998 -39.6875 39.125 C-40.31205078 37.82949219 -40.31205078 37.82949219 -40.94921875 36.5078125 C-44.1141567 28.95431747 -44.21120082 20.37230969 -41.375 12.6875 C-37.94492509 5.18947661 -33.39275554 0.55947489 -26 -3 C-17.38615417 -5.6963509 -7.66945424 -4.72883448 0 0 Z " fill="#FCFCFC" transform="translate(689,434)"/>
<path d="M0 0 C5.65145093 5.24229612 8.57341164 10.59192024 9.31640625 18.26953125 C9.63377002 27.71878166 8.00143065 34.45497644 2.8125 42.3125 C-3.63243893 48.4709972 -9.78092993 50.81299922 -18.703125 51.2109375 C-25.1279621 50.79986972 -30.68084943 48.54610038 -36 45 C-36 44.34 -36 43.68 -36 43 C-36.99 42.67 -37.98 42.34 -39 42 C-40.3515625 39.85546875 -40.3515625 39.85546875 -41.625 37.1875 C-42.05039062 36.31480469 -42.47578125 35.44210937 -42.9140625 34.54296875 C-46.1350529 27.0002898 -46.21317371 18.37765533 -43.375 10.6875 C-40.1315512 3.59743473 -35.45078205 -2.13650632 -28 -5 C-17.38710692 -8.10817658 -8.71741459 -6.95186227 0 0 Z M-26 10 C-29.54567225 13.63658693 -30.27677208 16.5710106 -30.4375 21.5 C-30.19779606 27.38872686 -28.82755761 30.95743561 -24.875 35.375 C-20.85666263 37.64623417 -17.51402504 37.78790255 -13 37 C-8.69710896 34.75501337 -6.9032404 31.77233823 -5.4453125 27.28125 C-4.49989017 22.43803385 -4.6238778 17.48622822 -7.05078125 13.1015625 C-9.26132513 10.29560896 -11.58339384 8.10213102 -15 7 C-19.59153355 7 -21.96729998 7.83962499 -26 10 Z " fill="#FCFCFC" transform="translate(513,436)"/>
<path d="M0 0 C5.53365026 3.5573466 9.15157429 7.12983892 11.859375 13.1953125 C11.609375 16.1328125 11.609375 16.1328125 10.859375 18.1953125 C7.46044345 18.54558407 4.24433737 18.73006169 0.859375 18.1953125 C-1.453125 15.3203125 -1.453125 15.3203125 -3.140625 12.1953125 C-5.74499733 10.78340686 -5.74499733 10.78340686 -8.140625 10.1953125 C-8.140625 9.5353125 -8.140625 8.8753125 -8.140625 8.1953125 C-14.86205904 7.92645514 -20.0208932 8.16385924 -25.828125 11.9453125 C-30.41003026 16.40338249 -31.35872666 20.23302003 -31.578125 26.5078125 C-31.39336876 33.8644701 -29.89100763 39.37440724 -24.703125 44.6953125 C-19.88563253 47.51530809 -14.64921648 47.80017745 -9.140625 47.1953125 C-5.02737563 45.64314293 -2.27521614 44.10872958 -0.140625 40.1953125 C-0.140625 38.8753125 -0.140625 37.5553125 -0.140625 36.1953125 C-4.100625 35.8653125 -8.060625 35.5353125 -12.140625 35.1953125 C-13.21255979 31.97950812 -13.28698554 29.56160501 -13.140625 26.1953125 C-11.33667625 24.39136375 -8.57384701 24.95825461 -6.13671875 24.87890625 C-4.92177734 24.83701172 -3.70683594 24.79511719 -2.45507812 24.75195312 C-1.17568359 24.71263672 0.10371094 24.67332031 1.421875 24.6328125 C2.70513672 24.58962891 3.98839844 24.54644531 5.31054688 24.50195312 C8.49337353 24.3954645 11.67628174 24.29345288 14.859375 24.1953125 C13.89974923 34.93739205 12.8520938 44.92322889 4.484375 52.6328125 C-1.24263256 57.35829903 -7.23262969 58.75980307 -14.453125 58.6953125 C-15.19860596 58.68959229 -15.94408691 58.68387207 -16.7121582 58.67797852 C-24.83251391 58.41614531 -30.888774 55.90560652 -36.515625 49.9453125 C-42.6073253 42.04163336 -44.98667234 33.05019727 -44.140625 23.1953125 C-42.5462168 14.58821062 -38.73471586 6.62546532 -31.640625 1.2578125 C-22.79807319 -4.78893249 -9.32368509 -5.01235702 0 0 Z " fill="#FBFBFB" transform="translate(512.140625,503.8046875)"/>
<path d="M0 0 C3.11143249 2.64802765 5.65684522 5.09264065 7 9 C7.02727809 10.66644342 7.03014857 12.33360604 7 14 C2.98075696 14.64743787 -0.92452349 15.14440665 -5 15 C-7.8125 12.625 -7.8125 12.625 -10 10 C-13.93271581 9.05072377 -16.1544104 8.7181368 -20 10 C-20.33 11.65 -20.66 13.3 -21 15 C-19.7934375 15.23074219 -18.586875 15.46148437 -17.34375 15.69921875 C1.46584457 19.46035246 1.46584457 19.46035246 6.38671875 25.78125 C9.00076567 30.15825879 9.47378049 33.89958948 8.60546875 38.89453125 C7.28491188 43.48666128 4.91884249 46.23073652 1.3125 49.25 C-6.76808993 53.5189909 -15.08281484 53.75641526 -24 52 C-27.04561465 50.70850518 -29.45932289 49.10154774 -32 47 C-32.78375 46.4225 -33.5675 45.845 -34.375 45.25 C-36.80726513 41.88224828 -37.57512455 38.10712939 -38 34 C-37 33 -37 33 -34.05859375 32.90234375 C-32.86363281 32.91394531 -31.66867187 32.92554688 -30.4375 32.9375 C-28.64119141 32.95103516 -28.64119141 32.95103516 -26.80859375 32.96484375 C-25.88175781 32.97644531 -24.95492187 32.98804688 -24 33 C-23.71382812 33.64453125 -23.42765625 34.2890625 -23.1328125 34.953125 C-22.18581338 37.19884128 -22.18581338 37.19884128 -19.875 37.75 C-19.25625 37.8325 -18.6375 37.915 -18 38 C-18 38.66 -18 39.32 -18 40 C-14.7 39.34 -11.4 38.68 -8 38 C-7.67 36.35 -7.34 34.7 -7 33 C-8.0621875 32.75765625 -9.124375 32.5153125 -10.21875 32.265625 C-29.97747662 27.63423553 -29.97747662 27.63423553 -35 20 C-36.74128861 16.51742278 -36.44943728 12.80773247 -36 9 C-33.89322971 3.11478298 -29.96787573 -0.55225574 -24.4375 -3.25 C-15.73273774 -5.14922086 -7.64208382 -4.83894242 0 0 Z " fill="#FCFCFC" transform="translate(561,434)"/>
<path d="M0 0 C3.63 0 7.26 0 11 0 C10.99476318 0.92748047 10.98952637 1.85496094 10.98413086 2.81054688 C10.96698673 6.28451166 10.95450035 9.75843082 10.94506836 13.23242188 C10.94007057 14.72982497 10.9332701 16.22722327 10.92456055 17.72460938 C10.91229377 19.88933505 10.90672603 22.05399565 10.90234375 24.21875 C10.89710693 25.51748047 10.89187012 26.81621094 10.88647461 28.15429688 C11.0053902 32.18259451 11.45790677 36.00934968 12 40 C12.2 44.6 12.2 44.6 11 47 C10.95466312 49.02032471 10.96146906 51.04203403 11 53.0625 C11.03764677 55.04130858 11.04662427 57.02138259 11 59 C10 60 10 60 7.93359375 60.09765625 C7.10988281 60.08605469 6.28617188 60.07445312 5.4375 60.0625 C4.61121094 60.05347656 3.78492188 60.04445313 2.93359375 60.03515625 C2.29550781 60.02355469 1.65742187 60.01195312 1 60 C0.34 58.68 -0.32 57.36 -1 56 C-1.9590625 56.9590625 -1.9590625 56.9590625 -2.9375 57.9375 C-7.5923112 61.07237285 -11.82422134 61.45671733 -17.3359375 60.6640625 C-23.66782546 59.00005099 -27.52846961 55.48344004 -31 50 C-34.28973591 42.53934891 -33.90706835 33.67982797 -31.109375 26.14453125 C-28.62343576 21.3389656 -24.95616962 18.06700161 -20.25 15.5 C-12.90765071 14.3704078 -7.37459774 15.17524136 -1 19 C-0.67 12.73 -0.34 6.46 0 0 Z M-19.75 28.625 C-21.57420007 32.09098013 -21.74381975 35.09325118 -22 39 C-21.67 39.33 -21.34 39.66 -21 40 C-21.0825 40.7425 -21.165 41.485 -21.25 42.25 C-21.22426459 45.20238512 -21.22426459 45.20238512 -18.9375 47.75 C-15.40685554 50.45432342 -13.43047517 51 -9 51 C-5.54580603 49.80431747 -3.57821879 48.63604067 -1.125 45.9375 C0.54110834 41.58710601 0.66937723 37.59737108 0 33 C-1.65028036 29.69943928 -2.94199146 27.75084477 -5.9375 25.625 C-11.10523777 24.05901886 -15.75633041 24.91659252 -19.75 28.625 Z " fill="#FCFCFC" transform="translate(620,502)"/>
<path d="M0 0 C3.53168779 4.52780486 5.14535993 7.97016461 5.0625 13.6875 C5.05347656 14.49574219 5.04445313 15.30398438 5.03515625 16.13671875 C5.02355469 16.75160156 5.01195312 17.36648438 5 18 C5.66 18.33 6.32 18.66 7 19 C4.15464275 20.42267862 1.63781448 20.21971869 -1.5390625 20.31640625 C-2.84101562 20.35830078 -4.14296875 20.40019531 -5.484375 20.44335938 C-6.86458045 20.48317299 -8.24478883 20.52288522 -9.625 20.5625 C-11.01303415 20.60569407 -12.40105528 20.64930865 -13.7890625 20.69335938 C-17.19260256 20.79972 -20.59621778 20.90174714 -24 21 C-23.67 22.98 -23.34 24.96 -23 27 C-18.84398363 28.58324433 -15.44404269 29.64808956 -11 29 C-9.58648063 27.71498239 -8.17397216 26.4286228 -6.78125 25.12109375 C-3.29021064 22.92388257 1.04507668 23.32424871 5 24 C5.66 24.66 6.32 25.32 7 26 C6.01 26 5.02 26 4 26 C3.89300781 26.58523438 3.78601563 27.17046875 3.67578125 27.7734375 C2.91070743 30.29420096 1.90919655 31.64613865 0.1875 33.625 C-0.31394531 34.21539063 -0.81539062 34.80578125 -1.33203125 35.4140625 C-4.20090366 38.14184282 -6.29171367 38.97275822 -10.25 39.125 C-11.1575 39.08375 -12.065 39.0425 -13 39 C-13.33 39.66 -13.66 40.32 -14 41 C-23.27115184 38.57022521 -28.6231873 36.783818 -34.25 28.8125 C-37.67387851 22.39620734 -37.62791405 15.00885334 -35.78515625 8.1015625 C-33.29745934 1.44295086 -29.3463824 -2.05346532 -23 -5 C-14.99185148 -7.81367381 -6.2497533 -5.41260389 0 0 Z M-24 8 C-24 8.99 -24 9.98 -24 11 C-20.38132441 12.2062252 -17.07493749 12.10816918 -13.3125 12.0625 C-12.61060547 12.05798828 -11.90871094 12.05347656 -11.18554688 12.04882812 C-9.45699462 12.03706927 -7.72848635 12.01913454 -6 12 C-7.26946514 7.17557816 -7.26946514 7.17557816 -11 4 C-16.7717933 3.44143936 -19.87485932 3.48812738 -24 8 Z " fill="#FBFBFB" transform="translate(670,523)"/>
<path d="M0 0 C1.69141656 0.08963062 3.37959602 0.24577676 5.0625 0.4375 C6.44115234 0.59025391 6.44115234 0.59025391 7.84765625 0.74609375 C8.55792969 0.82988281 9.26820313 0.91367187 10 1 C10.0995024 5.28663998 10.1717631 9.57265331 10.21972656 13.86010742 C10.23973822 15.31595584 10.26695677 16.77172494 10.30175781 18.22729492 C10.53348346 28.17445897 10.28445109 34.17999253 3.5 41.8125 C-1.53229563 45.65997666 -8.41992149 46.21796521 -14.56640625 45.84375 C-19.84024918 44.91569642 -23.32971163 43.01983964 -27 39 C-30.87690433 31.46615755 -30.34166863 23.75723297 -30.1875 15.5 C-30.17242613 14.09116014 -30.1587425 12.68230468 -30.14648438 11.2734375 C-30.11129724 7.84855604 -30.06206079 4.42448237 -30 1 C-28.35425434 0.97311849 -26.70838587 0.95365877 -25.0625 0.9375 C-24.14597656 0.92589844 -23.22945312 0.91429687 -22.28515625 0.90234375 C-20 1 -20 1 -19 2 C-18.87822145 3.94016224 -18.82026523 5.8843951 -18.7890625 7.828125 C-18.76070312 9.02050781 -18.73234375 10.21289062 -18.703125 11.44140625 C-18.6513651 13.96470125 -18.60699976 16.4881596 -18.5703125 19.01171875 C-18.539375 20.20925781 -18.5084375 21.40679688 -18.4765625 22.640625 C-18.45674316 23.73922852 -18.43692383 24.83783203 -18.41650391 25.96972656 C-17.94750255 29.38194511 -17.11185992 31.29148304 -15 34 C-11.54289236 34.94284754 -9.14573242 35.34062315 -5.6875 34.3125 C-3.5784841 32.6721543 -2.98490422 31.49172126 -2 29 C-1.65004547 25.9194155 -1.65004547 25.9194155 -1.62109375 22.51953125 C-1.58693359 21.27365234 -1.55277344 20.02777344 -1.51757812 18.74414062 C-1.49115234 17.44669922 -1.46472656 16.14925781 -1.4375 14.8125 C-1.37786663 12.23557724 -1.31428899 9.65874164 -1.24609375 7.08203125 C-1.22216553 5.93968018 -1.1982373 4.7973291 -1.17358398 3.62036133 C-1 1 -1 1 0 0 Z " fill="#FBFCFC" transform="translate(559,517)"/>
<path d="M0 0 C4.29 0 8.58 0 13 0 C13.83427113 3.33708453 14.12633833 5.66166669 14.12939453 9.02807617 C14.13254669 10.02558395 14.13569885 11.02309174 14.13894653 12.05082703 C14.1369223 13.1207338 14.13489807 14.19064056 14.1328125 15.29296875 C14.13376923 16.39473953 14.13472595 17.49651031 14.13571167 18.63166809 C14.13639168 20.9574896 14.13454988 23.28331301 14.13037109 25.60913086 C14.12500507 29.1841249 14.13033001 32.75899417 14.13671875 36.33398438 C14.13605824 38.59114611 14.13477763 40.84830777 14.1328125 43.10546875 C14.13483673 44.18144821 14.13686096 45.25742767 14.13894653 46.36601257 C14.13579437 47.35406387 14.13264221 48.34211517 14.12939453 49.36010742 C14.12820114 50.67104622 14.12820114 50.67104622 14.12698364 52.00846863 C14 54 14 54 13 55 C8.71 55 4.42 55 0 55 C0 36.85 0 18.7 0 0 Z " fill="#FCFCFC" transform="translate(574,431)"/>
<path d="M0 0 C3.07235411 0.53432245 4.03615216 1.04820288 5.875 3.5 C6.535 2.51 7.195 1.52 7.875 0.5 C12.20954707 -0.36861258 15.99451217 0.06874065 19.9375 2 C20.576875 2.495 21.21625 2.99 21.875 3.5 C22.390625 2.984375 22.90625 2.46875 23.4375 1.9375 C26.89113434 -0.09925871 29.06531889 0.58285455 32.875 1.5 C34.875 3.5 34.875 3.5 34.875 6.5 C31.15900809 6.70086443 30.10291555 6.6519437 26.875 4.5 C26.875 5.16 26.875 5.82 26.875 6.5 C29.515 7.16 32.155 7.82 34.875 8.5 C35.0625 11.875 35.0625 11.875 34.875 15.5 C31.20634759 17.94576827 29.20299657 17.73607254 24.875 17.5 C24.215 17.17 23.555 16.84 22.875 16.5 C22.545 16.83 22.215 17.16 21.875 17.5 C19.94168191 17.65209159 18.00158716 17.72186331 16.0625 17.75 C15.00417969 17.77578125 13.94585938 17.8015625 12.85546875 17.828125 C9.58112476 17.46764676 8.26500682 16.69903775 5.875 14.5 C5.524375 14.995 5.17375 15.49 4.8125 16 C1.84947821 18.29395236 -0.49542697 17.88888282 -4.125 17.5 C-6.22858381 15.95737187 -6.96554159 14.81891683 -8.125 12.5 C-8.62012681 8.12637986 -8.61723866 6.18044756 -6 2.5625 C-3.125 0.5 -3.125 0.5 0 0 Z M-1.125 4.5 C-1.455 5.16 -1.785 5.82 -2.125 6.5 C-0.805 6.17 0.515 5.84 1.875 5.5 C0.885 5.17 -0.105 4.84 -1.125 4.5 Z M6.875 4.5 C6.875 6.48 6.875 8.46 6.875 10.5 C7.535 9.51 8.195 8.52 8.875 7.5 C8.215 6.51 7.555 5.52 6.875 4.5 Z M13.875 4.5 C12.225 5.16 10.575 5.82 8.875 6.5 C8.875 6.83 8.875 7.16 8.875 7.5 C12.34 7.005 12.34 7.005 15.875 6.5 C15.215 5.84 14.555 5.18 13.875 4.5 Z M21.875 8.5 C21.545 10.15 21.215 11.8 20.875 13.5 C21.205 12.84 21.535 12.18 21.875 11.5 C23.0196875 11.995 23.0196875 11.995 24.1875 12.5 C26.86569135 13.67436686 26.86569135 13.67436686 29.875 13.5 C28.25133534 10.25267068 25.12112161 9.79844864 21.875 8.5 Z M3.875 10.5 C5.36 11.49 5.36 11.49 6.875 12.5 C6.875 11.84 6.875 11.18 6.875 10.5 C5.885 10.5 4.895 10.5 3.875 10.5 Z M13.875 10.5 C12.885 11.985 12.885 11.985 11.875 13.5 C13.195 13.17 14.515 12.84 15.875 12.5 C15.875 11.84 15.875 11.18 15.875 10.5 C15.215 10.5 14.555 10.5 13.875 10.5 Z M-2.125 11.5 C-1.795 12.16 -1.465 12.82 -1.125 13.5 C-0.465 13.17 0.195 12.84 0.875 12.5 C-0.115 12.17 -1.105 11.84 -2.125 11.5 Z " fill="#F0F1F1" transform="translate(660.125,583.5)"/>
<path d="M0 0 C1.37478516 0.01740234 1.37478516 0.01740234 2.77734375 0.03515625 C3.69644531 0.04417969 4.61554687 0.05320312 5.5625 0.0625 C6.27277344 0.07410156 6.98304688 0.08570313 7.71484375 0.09765625 C7.73948888 6.20320335 7.75767746 12.30872176 7.76977539 18.41430664 C7.77481663 20.49308781 7.78164949 22.57186541 7.7902832 24.65063477 C7.80235797 27.63168211 7.80807399 30.61268274 7.8125 33.59375 C7.81766129 34.52916122 7.82282257 35.46457245 7.82814026 36.42832947 C7.82821579 37.28914627 7.82829132 38.14996307 7.82836914 39.03686523 C7.83058975 39.798535 7.83281036 40.56020477 7.83509827 41.34495544 C7.71484375 43.09765625 7.71484375 43.09765625 6.71484375 44.09765625 C5.21746251 44.19556195 3.71541483 44.22740489 2.21484375 44.22265625 C1.40015625 44.22523438 0.58546875 44.2278125 -0.25390625 44.23046875 C-2.28515625 44.09765625 -2.28515625 44.09765625 -3.28515625 43.09765625 C-3.38632545 40.0068416 -3.42484183 36.9388307 -3.41796875 33.84765625 C-3.41892548 32.91920898 -3.4198822 31.99076172 -3.42086792 31.03417969 C-3.4215498 29.0670566 -3.41969497 27.09993129 -3.41552734 25.1328125 C-3.4101792 22.11062599 -3.41547207 19.0885881 -3.421875 16.06640625 C-3.42121422 14.16015592 -3.41993306 12.25390568 -3.41796875 10.34765625 C-3.41999298 9.43725586 -3.42201721 8.52685547 -3.42410278 7.58886719 C-3.39608853 0.14513199 -3.39608853 0.14513199 0 0 Z " fill="#FBFBFC" transform="translate(576.28515625,517.90234375)"/>
<path d="M0 0 C1.65 0 3.3 0 5 0 C5.99 2.31 6.98 4.62 8 7 C8.99 4.69 9.98 2.38 11 0 C12.65 0 14.3 0 16 0 C16 0.99 16 1.98 16 3 C16.66 2.01 17.32 1.02 18 0 C21.08477737 -0.39803579 23.04217323 -0.60208727 26 0 C28.80048848 2.17037857 29.78686187 3.73227219 30.375 7.23046875 C30.5617607 10.80810342 30.63926222 13.15617387 28.4375 16.0625 C25.05217395 17.36454848 22.59663278 17.4495791 19 17 C15.08050536 14.21509591 14.98836468 12.94182338 14 8 C12.02 12.95 10.04 17.9 8 23 C5.69 23 3.38 23 1 23 C1 21.68 1 20.36 1 19 C2.32 18.67 3.64 18.34 5 18 C4.74438677 15.6568787 4.40729228 13.32156597 4 11 C3.34 10.67 2.68 10.34 2 10 C0.84985628 6.54956883 0 3.64717645 0 0 Z M20 5 C20 7.31 20 9.62 20 12 C21.32 12.33 22.64 12.66 24 13 C24.73080266 11.02253397 25.39421747 9.01927511 26 7 C25.67 6.34 25.34 5.68 25 5 C23.35 5 21.7 5 20 5 Z " fill="#F3F3F4" transform="translate(542,584)"/>
<path d="M0 0 C1.65 0 3.3 0 5 0 C6.65 3.96 8.3 7.92 10 12 C11.65 8.04 13.3 4.08 15 0 C16.65 0 18.3 0 20 0 C21 1 21 1 21.11352539 3.04125977 C21.10828857 3.91580811 21.10305176 4.79035645 21.09765625 5.69140625 C21.09443359 6.63564453 21.09121094 7.57988281 21.08789062 8.55273438 C21.07951172 9.54595703 21.07113281 10.53917969 21.0625 11.5625 C21.05798828 12.55958984 21.05347656 13.55667969 21.04882812 14.58398438 C21.03700007 17.05604849 21.02051849 19.52799518 21 22 C19.35 22 17.7 22 16 22 C15.67 19.03 15.34 16.06 15 13 C14.01 15.97 13.02 18.94 12 22 C10.68 22 9.36 22 8 22 C7.01 19.36 6.02 16.72 5 14 C4.67 16.64 4.34 19.28 4 22 C2.35 21.67 0.7 21.34 -1 21 C-1.02888146 17.68751813 -1.04675799 14.37506833 -1.0625 11.0625 C-1.07087891 10.11697266 -1.07925781 9.17144531 -1.08789062 8.19726562 C-1.09111328 7.29814453 -1.09433594 6.39902344 -1.09765625 5.47265625 C-1.10289307 4.64000244 -1.10812988 3.80734863 -1.11352539 2.94946289 C-1 1 -1 1 0 0 Z " fill="#F3F4F4" transform="translate(472,579)"/>
<path d="M0 0 C3.58729136 0.67261713 4.72382068 1.78050305 7 4.5625 C7.33 4.8925 7.66 5.2225 8 5.5625 C8 4.5725 8 3.5825 8 2.5625 C7.34 2.2325 6.68 1.9025 6 1.5625 C10.04141194 0.92855303 13.9065307 0.43845548 18 0.5625 C18.625 2.875 18.625 2.875 19 5.5625 C18.01 7.0475 18.01 7.0475 17 8.5625 C16.34 8.2325 15.68 7.9025 15 7.5625 C15 7.2325 15 6.9025 15 6.5625 C14.34 6.5625 13.68 6.5625 13 6.5625 C13 10.1925 13 13.8225 13 17.5625 C11.35 17.5625 9.7 17.5625 8 17.5625 C7.67 16.5725 7.34 15.5825 7 14.5625 C6.649375 15.0575 6.29875 15.5525 5.9375 16.0625 C2.93965306 18.38341376 0.67355767 18.01363866 -3 17.5625 C-5.4375 16.0625 -5.4375 16.0625 -7 13.5625 C-7.59566305 8.87165346 -7.62175128 6.71034852 -5.375 2.5625 C-3 0.5625 -3 0.5625 0 0 Z M1 4.5625 C0.01 5.2225 -0.98 5.8825 -2 6.5625 C-0.35 6.5625 1.3 6.5625 3 6.5625 C2.34 5.9025 1.68 5.2425 1 4.5625 Z M-2 10.5625 C-1.67 11.5525 -1.34 12.5425 -1 13.5625 C0.97536745 13.21463292 0.97536745 13.21463292 3 12.5625 C3.33 11.9025 3.66 11.2425 4 10.5625 C2.02 10.5625 0.04 10.5625 -2 10.5625 Z " fill="#EEEEEE" transform="translate(709,583.4375)"/>
<path d="M0 0 C9.02251656 -0.61986755 9.02251656 -0.61986755 12.5625 1.625 C14.3586017 4.59247237 14.93039253 6.51962663 15 10 C14 13.3125 14 13.3125 12 16 C8.3125 16.875 8.3125 16.875 5 17 C5.020625 17.804375 5.04125 18.60875 5.0625 19.4375 C5 22 5 22 4 23 C2.33382885 23.04063832 0.66611905 23.042721 -1 23 C-1.02894547 19.54168414 -1.04678 16.08339928 -1.0625 12.625 C-1.07087891 11.64015625 -1.07925781 10.6553125 -1.08789062 9.640625 C-1.09111328 8.69960938 -1.09433594 7.75859375 -1.09765625 6.7890625 C-1.10289307 5.91975098 -1.10812988 5.05043945 -1.11352539 4.15478516 C-1 2 -1 2 0 0 Z M7 4 C6.01 4.66 5.02 5.32 4 6 C3.7497843 9.08365871 3.7497843 9.08365871 4 12 C5.89179203 12.6814823 5.89179203 12.6814823 8 13 C10.23845015 11.17084359 10.23845015 11.17084359 10.3125 8.5 C10.209375 7.675 10.10625 6.85 10 6 C9.01 5.34 8.02 4.68 7 4 Z " fill="#F0F0F1" transform="translate(632,584)"/>
<path d="M0 0 C1.32 0 2.64 0 4 0 C4.66 2.64 5.32 5.28 6 8 C6.33 7.34 6.66 6.68 7 6 C9.97 6 12.94 6 16 6 C14.7934375 7.11375 14.7934375 7.11375 13.5625 8.25 C10.56522295 11.19567796 10.56522295 11.19567796 10 15 C11.26660533 17.04291182 12.59886384 19.04690112 14 21 C14 21.66 14 22.32 14 23 C11.1875 23.25 11.1875 23.25 8 23 C6.125 21 6.125 21 5 19 C5 20.32 5 21.64 5 23 C3.35 23.33 1.7 23.66 0 24 C-1.40364053 15.92906697 -1.40364053 8.07093303 0 0 Z M4 9 C4.33 9.99 4.66 10.98 5 12 C5.33 11.01 5.66 10.02 6 9 C5.34 9 4.68 9 4 9 Z " fill="#F5F6F6" transform="translate(510,578)"/>
<path d="M0 0 C1.8871875 0.061875 1.8871875 0.061875 3.8125 0.125 C6.07248595 3.71962331 6.02118087 6.69095675 5.9375 10.875 C5.91945313 12.04546875 5.90140625 13.2159375 5.8828125 14.421875 C5.84800781 15.75992188 5.84800781 15.75992188 5.8125 17.125 C3.85483719 17.20582094 1.89623272 17.26410778 -0.0625 17.3125 C-1.69832031 17.36470703 -1.69832031 17.36470703 -3.3671875 17.41796875 C-4.29789062 17.32128906 -5.22859375 17.22460938 -6.1875 17.125 C-8.57413575 13.54504638 -8.35181099 12.25873836 -8 8.0625 C-7.92394531 6.99902344 -7.84789062 5.93554688 -7.76953125 4.83984375 C-6.80264839 0.32988678 -4.13390177 -0.13553776 0 0 Z M-2.1875 4.125 C-2.8475 4.785 -3.5075 5.445 -4.1875 6.125 C-2.5375 6.125 -0.8875 6.125 0.8125 6.125 C0.4825 5.465 0.1525 4.805 -0.1875 4.125 C-0.8475 4.125 -1.5075 4.125 -2.1875 4.125 Z M-3.1875 11.125 C-2.1875 13.125 -2.1875 13.125 -2.1875 13.125 Z " fill="#F4F5F5" transform="translate(502.1875,583.875)"/>
<path d="M0 0 C2.3125 1.0625 2.3125 1.0625 4 3 C4.75 6.6875 4.75 6.6875 5 10 C2.36 10.33 -0.28 10.66 -3 11 C-2.01 11 -1.02 11 0 11 C1.32 11 2.64 11 4 11 C3.625 13.4375 3.625 13.4375 3 16 C-0.09173752 17.54586876 -2.59429552 17.29359521 -6 17 C-8.77287907 15.32167846 -9.71204584 13.96279151 -10.63671875 10.87109375 C-11.06955525 8.46071068 -11.25925823 6.43613337 -11 4 C-7.82044114 0.04963899 -4.95224764 -0.7375688 0 0 Z M-3 4 C-3.66 4.66 -4.32 5.32 -5 6 C-3.68 5.67 -2.36 5.34 -1 5 C-1.66 4.67 -2.32 4.34 -3 4 Z " fill="#F1F2F2" transform="translate(533,584)"/>
<path d="M0 0 C1.65 0 3.3 0 5 0 C5.33 3.96 5.66 7.92 6 12 C6.99 12 7.98 12 9 12 C9 8.04 9 4.08 9 0 C10.65 0 12.3 0 14 0 C14 5.61 14 11.22 14 17 C13.01 17 12.02 17 11 17 C10.67 17.66 10.34 18.32 10 19 C10 18.34 10 17.68 10 17 C7.02148438 17.09765625 7.02148438 17.09765625 4.04296875 17.1953125 C2 17 2 17 -1 15 C-0.67 14.67 -0.34 14.34 0 14 C0.07271741 11.64686445 0.08370868 9.29166332 0.0625 6.9375 C0.05347656 5.64714844 0.04445313 4.35679687 0.03515625 3.02734375 C0.02355469 2.02832031 0.01195312 1.02929688 0 0 Z " fill="#F4F5F5" transform="translate(573,584)"/>
<path d="M0 0 C1.65 0 3.3 0 5 0 C5 1.32 5 2.64 5 4 C5.99 4 6.98 4 8 4 C8 5.65 8 7.3 8 9 C7.01 9 6.02 9 5 9 C5 11.64 5 14.28 5 17 C5.99 17 6.98 17 8 17 C8 18.32 8 19.64 8 21 C5.125 21.125 5.125 21.125 2 21 C0 19 0 19 -0.1953125 16.6171875 C-0.16050781 15.25980469 -0.16050781 15.25980469 -0.125 13.875 C-0.10695313 12.96492187 -0.08890625 12.05484375 -0.0703125 11.1171875 C-0.04710937 10.41851563 -0.02390625 9.71984375 0 9 C-0.99 9 -1.98 9 -3 9 C-3 7.68 -3 6.36 -3 5 C-2.34 4.67 -1.68 4.34 -1 4 C-0.34786708 1.97536745 -0.34786708 1.97536745 0 0 Z " fill="#F4F5F5" transform="translate(605,580)"/>
<path d="M0 0 C2.9375 0.5 2.9375 0.5 4.8125 1.625 C6.4057099 4.28034983 6.13964032 6.46789518 5.9375 9.5 C3.22870665 10.85439668 0.92816732 10.56501451 -2.0625 10.5 C-2.0625 11.82 -2.0625 13.14 -2.0625 14.5 C-0.7425 14.5 0.5775 14.5 1.9375 14.5 C1.9375 15.16 1.9375 15.82 1.9375 16.5 C-3.39583333 16.85555556 -3.39583333 16.85555556 -5.9375 15.5 C-7.75613239 12.26687575 -7.67830718 9.05645947 -7.0625 5.5 C-5.06757991 1.81707061 -4.16771668 0.68044354 0 0 Z M0.9375 4.5 C-0.0525 5.16 -1.0425 5.82 -2.0625 6.5 C-0.4125 6.5 1.2375 6.5 2.9375 6.5 C2.2775 5.84 1.6175 5.18 0.9375 4.5 Z " fill="#EFF0F0" transform="translate(709.0625,583.5)"/>
<path d="M0 0 C1.8125 1.0625 1.8125 1.0625 3 3 C3.4375 6.5 3.4375 6.5 3 10 C1.4375 12 1.4375 12 -1 13 C-4.625 12.9375 -4.625 12.9375 -8 12 C-9.98187369 9.68781402 -10.02234293 8.45803016 -9.875 5.4375 C-8.16125628 0.66349964 -4.89864069 -0.75363703 0 0 Z " fill="#FBFBFC" transform="translate(582,501)"/>
<path d="M0 0 C2.97 0 5.94 0 9 0 C9.33 1.65 9.66 3.3 10 5 C8.68 5.33 7.36 5.66 6 6 C5.67 9.63 5.34 13.26 5 17 C3.35 17 1.7 17 0 17 C0 11.39 0 5.78 0 0 Z " fill="#F4F4F4" transform="translate(614,584)"/>
<path d="M0 0 C2.10407096 1.69636171 2.93240678 2.54981464 3.34057617 5.26831055 C3.32486572 6.13238525 3.30915527 6.99645996 3.29296875 7.88671875 C3.28330078 8.82451172 3.27363281 9.76230469 3.26367188 10.72851562 C3.23853516 11.70498047 3.21339844 12.68144531 3.1875 13.6875 C3.17396484 14.67556641 3.16042969 15.66363281 3.14648438 16.68164062 C3.11112203 19.12164231 3.06177033 21.56054719 3 24 C1.35 24 -0.3 24 -2 24 C-2.05802698 20.56257082 -2.09360486 17.12526747 -2.125 13.6875 C-2.14175781 12.71103516 -2.15851562 11.73457031 -2.17578125 10.72851562 C-2.18222656 9.79072266 -2.18867187 8.85292969 -2.1953125 7.88671875 C-2.20578613 7.02264404 -2.21625977 6.15856934 -2.22705078 5.26831055 C-2 3 -2 3 0 0 Z " fill="#E6E7E8" transform="translate(698,577)"/>
<path d="M0 0 C2.97 0 5.94 0 9 0 C9 1.65 9 3.3 9 5 C7.68 5.33 6.36 5.66 5 6 C4.67 9.63 4.34 13.26 4 17 C2.35 17 0.7 17 -1 17 C-1.02699725 14.72923158 -1.04639453 12.45837179 -1.0625 10.1875 C-1.07990234 8.29064453 -1.07990234 8.29064453 -1.09765625 6.35546875 C-1 3 -1 3 0 0 Z " fill="#F4F5F5" transform="translate(589,584)"/>
<path d="M0 0 C2.96479234 4.32938219 2.1327344 8.95609285 2 14 C-1.3 14.33 -4.6 14.66 -8 15 C-8.66 13.02 -9.32 11.04 -10 9 C-9.01 8.34 -8.02 7.68 -7 7 C-7 8.32 -7 9.64 -7 11 C-5.02 10.67 -3.04 10.34 -1 10 C-1 7.36 -1 4.72 -1 2 C-3.64 2.33 -6.28 2.66 -9 3 C-8.67 2.01 -8.34 1.02 -8 0 C-5.04063954 -1.47968023 -3.13239866 -0.84835797 0 0 Z " fill="#F6F6F6" transform="translate(678,586)"/>
<path d="M0 0 C1.32 0.66 2.64 1.32 4 2 C4 8.93 4 15.86 4 23 C3.34 23.33 2.68 23.66 2 24 C1.01 23.67 0.02 23.34 -1 23 C-2.08759656 16.06657192 -2.58558306 9.00714642 -2 2 C-1.34 1.34 -0.68 0.68 0 0 Z " fill="#EFF0F0" transform="translate(626,578)"/>
<path d="M0 0 C0.99 0 1.98 0 3 0 C3.33 0.66 3.66 1.32 4 2 C5.65 1.67 7.3 1.34 9 1 C9.33 1.66 9.66 2.32 10 3 C9.360625 3.12375 8.72125 3.2475 8.0625 3.375 C7.381875 3.58125 6.70125 3.7875 6 4 C5.67 4.66 5.34 5.32 5 6 C4.34 6 3.68 6 3 6 C3 8.31 3 10.62 3 13 C3.66 13 4.32 13 5 13 C5 13.66 5 14.32 5 15 C4.34 15 3.68 15 3 15 C3 17.31 3 19.62 3 22 C2.01 22 1.02 22 0 22 C-0.1964031 18.70880065 -0.38060745 15.41703066 -0.5625 12.125 C-0.61857422 11.18785156 -0.67464844 10.25070312 -0.73242188 9.28515625 C-0.78076172 8.38925781 -0.82910156 7.49335937 -0.87890625 6.5703125 C-0.9260376 5.74289551 -0.97316895 4.91547852 -1.02172852 4.06298828 C-1 2 -1 2 0 0 Z " fill="#F9FAFA" transform="translate(632,584)"/>
<path d="M0 0 C0.66 0 1.32 0 2 0 C2 2.64 2 5.28 2 8 C1.67 7.34 1.34 6.68 1 6 C-0.65 6.99 -2.3 7.98 -4 9 C-4.33 8.01 -4.66 7.02 -5 6 C-6.33333333 9 -6.33333333 9 -5 12 C-5.66 12 -6.32 12 -7 12 C-9 10 -9 10 -10 8 C-10.99 8.66 -11.98 9.32 -13 10 C-15.6875 9.625 -15.6875 9.625 -18 9 C-18.33 7.68 -18.66 6.36 -19 5 C-16.36 5 -13.72 5 -11 5 C-11 5.66 -11 6.32 -11 7 C-7.72226496 6.24849977 -7.72226496 6.24849977 -6 3 C-2.875 1.8125 -2.875 1.8125 0 1 C0 0.67 0 0.34 0 0 Z M-17 7 C-16.67 7.66 -16.34 8.32 -16 9 C-15.34 8.67 -14.68 8.34 -14 8 C-14.99 7.67 -15.98 7.34 -17 7 Z " fill="#F0F2F1" transform="translate(675,588)"/>
<path d="M0 0 C-2.20709983 0.65003625 -4.41573892 1.29484745 -6.625 1.9375 C-7.85476563 2.29714844 -9.08453125 2.65679688 -10.3515625 3.02734375 C-15.64993242 4.43986421 -20.5720966 5.12591703 -26.0546875 5.09765625 C-27.16328125 5.09443359 -28.271875 5.09121094 -29.4140625 5.08789062 C-30.55617188 5.07951172 -31.69828125 5.07113281 -32.875 5.0625 C-34.0403125 5.05798828 -35.205625 5.05347656 -36.40625 5.04882812 C-39.27088645 5.03708781 -42.13541633 5.0206657 -45 5 C-44.67 4.01 -44.34 3.02 -44 2 C-41.9375 1.3125 -41.9375 1.3125 -40 1 C-40 1.66 -40 2.32 -40 3 C-22.44752931 2.80101306 -22.44752931 2.80101306 -5.29296875 -0.4765625 C-3 -1 -3 -1 0 0 Z " fill="#F1F1F1" transform="translate(397,581)"/>
<path d="M0 0 C2.77189158 3.21897087 3 4.6935573 3 9 C-0.3 8.67 -3.6 8.34 -7 8 C-7 7.34 -7 6.68 -7 6 C-5.35 5.67 -3.7 5.34 -2 5 C-2.33 4.34 -2.66 3.68 -3 3 C-4.65 3 -6.3 3 -8 3 C-8.66 4.65 -9.32 6.3 -10 8 C-10.75 6.25 -10.75 6.25 -11 4 C-8.0559353 -0.41609704 -5.09198598 -0.83323407 0 0 Z " fill="#F8F8F8" transform="translate(535,585)"/>
<path d="M0 0 C-0.33 0.66 -0.66 1.32 -1 2 C-2.65 2 -4.3 2 -6 2 C-5.67 3.65 -5.34 5.3 -5 7 C-3.68 7 -2.36 7 -1 7 C-1 7.66 -1 8.32 -1 9 C-6.42857143 9.36190476 -6.42857143 9.36190476 -8.875 7.8125 C-10.39684676 5.36063578 -10.43566323 3.83181098 -10 1 C-6.1496895 -1.56687367 -4.41430237 -0.83288724 0 0 Z " fill="#F6F6F6" transform="translate(712,591)"/>
<path d="M0 0 C1.07765625 0.00902344 2.1553125 0.01804687 3.265625 0.02734375 C4.08546875 0.03894531 4.9053125 0.05054688 5.75 0.0625 C5.75 0.3925 5.75 0.7225 5.75 1.0625 C4.73679687 1.16046875 3.72359375 1.2584375 2.6796875 1.359375 C1.32802945 1.50955923 -0.02352817 1.66064923 -1.375 1.8125 C-2.04015625 1.874375 -2.7053125 1.93625 -3.390625 2 C-10.21233588 2.80255422 -14.47330787 5.97474019 -19.125 10.8125 C-19.72054687 11.42609375 -20.31609375 12.0396875 -20.9296875 12.671875 C-21.36539063 13.13078125 -21.80109375 13.5896875 -22.25 14.0625 C-22.25 10.47861006 -21.12192072 9.19215094 -18.8125 6.5546875 C-13.30706396 1.29699608 -7.39236531 -0.0803518 0 0 Z " fill="#E7E8E7" transform="translate(673.25,429.9375)"/>
<path d="M0 0 C0.99 0 1.98 0 3 0 C3 4.95 3 9.9 3 15 C2.01 15 1.02 15 0 15 C0 10.05 0 5.1 0 0 Z " fill="#F7F8F9" transform="translate(697,585)"/>
<path d="M0 0 C0.66 0.33 1.32 0.66 2 1 C-3.61 6.61 -9.22 12.22 -15 18 C-15 14.47967572 -14.29648649 13.5614657 -12 11 C-11.34 11 -10.68 11 -10 11 C-9.75507813 10.41734375 -9.51015625 9.8346875 -9.2578125 9.234375 C-7.79564126 6.63697764 -6.15259586 5.16024169 -3.875 3.25 C-3.15054687 2.63640625 -2.42609375 2.0228125 -1.6796875 1.390625 C-0.84824219 0.70226562 -0.84824219 0.70226562 0 0 Z " fill="#F1F0F0" transform="translate(313,439)"/>
<path d="M0 0 C2.64 0 5.28 0 8 0 C8 0.66 8 1.32 8 2 C9.32 1.67 10.64 1.34 12 1 C12.66 2.98 13.32 4.96 14 7 C13.34 7 12.68 7 12 7 C10 5 10 5 9 3 C8.01 3.66 7.02 4.32 6 5 C3.3125 4.625 3.3125 4.625 1 4 C0.67 2.68 0.34 1.36 0 0 Z M2 2 C2.33 2.66 2.66 3.32 3 4 C3.66 3.67 4.32 3.34 5 3 C4.01 2.67 3.02 2.34 2 2 Z " fill="#EAEBEC" transform="translate(656,593)"/>
<path d="M0 0 C0.66 0 1.32 0 2 0 C2.36315666 1.9358351 2.71522731 3.87375248 3.0625 5.8125 C3.25972656 6.89144531 3.45695313 7.97039063 3.66015625 9.08203125 C4 12 4 12 3 15 C2.01 15 1.02 15 0 15 C0 10.05 0 5.1 0 0 Z " fill="#FBFCFD" transform="translate(626,585)"/>
<path d="M0 0 C2.89932357 2.39509338 3.50168276 4.31245243 4 8 C1.08500057 8.79560764 -1.74561419 9.25322499 -4.75 9.5625 C-5.54921875 9.64628906 -6.3484375 9.73007812 -7.171875 9.81640625 C-7.77515625 9.87699219 -8.3784375 9.93757813 -9 10 C-8.67 9.34 -8.34 8.68 -8 8 C-5.71484375 7.5859375 -5.71484375 7.5859375 -2.9375 7.375 C-2.01839844 7.30023438 -1.09929688 7.22546875 -0.15234375 7.1484375 C0.91306641 7.07496094 0.91306641 7.07496094 2 7 C1.34 4.69 0.68 2.38 0 0 Z " fill="#EAEBEB" transform="translate(694,441)"/>
<path d="M0 0 C0 0.33 0 0.66 0 1 C-2.64 1.66 -5.28 2.32 -8 3 C-8.33 6.3 -8.66 9.6 -9 13 C-11.33043558 9.50434664 -11.58763244 8.1134271 -11 4 C-7.57094571 0.16752756 -5.04653478 -0.4694451 0 0 Z " fill="#EAEAEA" transform="translate(533,584)"/>
<path d="M0 0 C2.64 0 5.28 0 8 0 C8.36923077 4.55384615 8.36923077 4.55384615 6.5 6.8125 C6.005 7.204375 5.51 7.59625 5 8 C4.34 7.67 3.68 7.34 3 7 C3.165 6.38125 3.33 5.7625 3.5 5.125 C4.07634644 3.03936614 4.07634644 3.03936614 4 1 C2.68 0.67 1.36 0.34 0 0 Z " fill="#F3F4F4" transform="translate(676,465)"/>
<path d="M0 0 C3.26954202 0.56371414 4.82575883 1.49962266 7 4 C6 5 6 5 2.9375 5.0625 C1.4834375 5.0315625 1.4834375 5.0315625 0 5 C0 3.35 0 1.7 0 0 Z " fill="#F5F5F6" transform="translate(683,595)"/>
<path d="M0 0 C0.2475 0.61875 0.495 1.2375 0.75 1.875 C2.20628639 4.35068687 3.37812506 4.95125002 6 6 C5 7 5 7 2.4375 7.0625 C1.2309375 7.0315625 1.2309375 7.0315625 0 7 C-0.66 5.35 -1.32 3.7 -2 2 C-1.34 1.34 -0.68 0.68 0 0 Z " fill="#FAFBFB" transform="translate(670,593)"/>
<path d="M0 0 C3.96 0 7.92 0 12 0 C12 0.33 12 0.66 12 1 C8.37 1.33 4.74 1.66 1 2 C1 3.65 1 5.3 1 7 C0.34 6.01 -0.32 5.02 -1 4 C-0.67 2.68 -0.34 1.36 0 0 Z " fill="#F6F6F7" transform="translate(524,467)"/>
<path d="M0 0 C1.65 0.33 3.3 0.66 5 1 C4.67 2.98 4.34 4.96 4 7 C3.01 7 2.02 7 1 7 C1 6.67 1 6.34 1 6 C0.34 5.67 -0.32 5.34 -1 5 C0.32 4.67 1.64 4.34 3 4 C3 3.01 3 2.02 3 1 C2.01 1.33 1.02 1.66 0 2 C0 1.34 0 0.68 0 0 Z " fill="#D4D5D6" transform="translate(723,584)"/>
<path d="M0 0 C0.99 0.33 1.98 0.66 3 1 C0.36 3.64 -2.28 6.28 -5 9 C-5 4.61031544 -2.87194899 3.23094261 0 0 Z " fill="#F2F2F2" transform="translate(656,435)"/>
<path d="M0 0 C0.66 0.33 1.32 0.66 2 1 C-0.97 3.97 -3.94 6.94 -7 10 C-7 7 -7 7 -4.625 4.4375 C-3.75875 3.633125 -2.8925 2.82875 -2 2 C-1.34 1.34 -0.68 0.68 0 0 Z " fill="#F4F4F4" transform="translate(481,505)"/>
<path d="M0 0 C1.67542976 0.28604898 3.34385343 0.61781233 5 1 C2 3 2 3 0 3 C0 3.66 0 4.32 0 5 C-0.99 5 -1.98 5 -3 5 C-1.125 1.125 -1.125 1.125 0 0 Z " fill="#FBFBFA" transform="translate(657,585)"/>
<path d="M0 0 C1.32 0 2.64 0 4 0 C3.67 1.98 3.34 3.96 3 6 C2.34 5.34 1.68 4.68 1 4 C0.01 4.33 -0.98 4.66 -2 5 C-2 4.34 -2 3.68 -2 3 C-1.34 3 -0.68 3 0 3 C0 2.01 0 1.02 0 0 Z " fill="#F0F1F2" transform="translate(483,589)"/>
<path d="M0 0 C2.97 0 5.94 0 9 0 C7.35 1.65 5.7 3.3 4 5 C3.67 4.01 3.34 3.02 3 2 C2.01 1.67 1.02 1.34 0 1 C0 0.67 0 0.34 0 0 Z " fill="#F0F0F0" transform="translate(517,584)"/>
<path d="M0 0 C0.33 0.99 0.66 1.98 1 3 C0.34 3 -0.32 3 -1 3 C-1 2.34 -1 1.68 -1 1 C-1.66 1 -2.32 1 -3 1 C-3 2.32 -3 3.64 -3 5 C-3.66 5 -4.32 5 -5 5 C-5 4.01 -5 3.02 -5 2 C-5.66 1.67 -6.32 1.34 -7 1 C-4.53721199 -0.231394 -2.7204945 -0.07159196 0 0 Z " fill="#DEE0E1" transform="translate(722,584)"/>
<path d="M0 0 C1.5 1.375 1.5 1.375 3 3 C3 3.66 3 4.32 3 5 C1.02 5 -0.96 5 -3 5 C-2 3 -2 3 0 0 Z " fill="#EDEEEE" transform="translate(521,596)"/>
<path d="M0 0 C0.66 0.33 1.32 0.66 2 1 C-0.31 3.31 -2.62 5.62 -5 8 C-5 5 -5 5 -2.5 2.3125 C-1.675 1.549375 -0.85 0.78625 0 0 Z " fill="#F5F5F5" transform="translate(643,520)"/>
<path d="M0 0 C0.99 0.33 1.98 0.66 3 1 C2.01 1.33 1.02 1.66 0 2 C0 1.34 0 0.68 0 0 Z " fill="#F0F2F1" transform="translate(563,590)"/>
<path d="M0 0 C1.65 0 3.3 0 5 0 C5 0.33 5 0.66 5 1 C3.35 1 1.7 1 0 1 C0 0.67 0 0.34 0 0 Z " fill="#F7F8F7" transform="translate(600,487)"/>
<path d="M0 0 C1.65 0 3.3 0 5 0 C5 0.33 5 0.66 5 1 C3.35 1 1.7 1 0 1 C0 0.67 0 0.34 0 0 Z " fill="#F7F7F8" transform="translate(576,487)"/>
<path d="M0 0 C1 4 1 4 1 4 Z " fill="#F9FAFA" transform="translate(572,481)"/>
<path d="M0 0 C1 4 1 4 1 4 Z " fill="#FAF9FB" transform="translate(466,459)"/>
<path d="M0 0 C0.33 0.99 0.66 1.98 1 3 C0.34 2.67 -0.32 2.34 -1 2 C-0.67 1.34 -0.34 0.68 0 0 Z " fill="#F9FAFC" transform="translate(523,448)"/>
<path d="M0 0 C1.485 0.99 1.485 0.99 3 2 C2.01 2 1.02 2 0 2 C0 1.34 0 0.68 0 0 Z " fill="#F4F5F5" transform="translate(679,446)"/>
<path d="" fill="#EBE9EB" transform="translate(0,0)"/>
<path d="M0 0 C0.33 0.66 0.66 1.32 1 2 C0.34 1.67 -0.32 1.34 -1 1 C-0.67 0.67 -0.34 0.34 0 0 Z " fill="#FBFCFC" transform="translate(379,537)"/>
<path d="" fill="#FAFAFB" transform="translate(0,0)"/>
<path d="M0 0 C0.66 0.66 1.32 1.32 2 2 C1.34 2 0.68 2 0 2 C0 1.34 0 0.68 0 0 Z " fill="#F9FBFB" transform="translate(580,515)"/>
<path d="" fill="#FAFBFC" transform="translate(0,0)"/>
<path d="M0 0 C3 1 3 1 3 1 Z " fill="#F7F9F9" transform="translate(547,472)"/>
<path d="" fill="#F7F8F9" transform="translate(0,0)"/>
<path d="" fill="#E3E3E3" transform="translate(0,0)"/>
<path d="" fill="#E6E5E7" transform="translate(0,0)"/>
<path d="" fill="#EBECEE" transform="translate(0,0)"/>
<path d="M0 0 C2 1 2 1 2 1 Z " fill="#F0EFF1" transform="translate(611,592)"/>
<path d="" fill="#EBEBEC" transform="translate(0,0)"/>
<path d="M0 0 C2 1 2 1 2 1 Z " fill="#F4F5F6" transform="translate(623,563)"/>
<path d="M0 0 C2 1 2 1 2 1 Z " fill="#F0F1F2" transform="translate(673,545)"/>
<path d="" fill="#F7F7F9" transform="translate(0,0)"/>
<path d="" fill="#F8F9F9" transform="translate(0,0)"/>
<path d="" fill="#F9F9FA" transform="translate(0,0)"/>
<path d="M0 0 C2 1 2 1 2 1 Z " fill="#FBFCFD" transform="translate(356,540)"/>
<path d="" fill="#FBFCFC" transform="translate(0,0)"/>
<path d="" fill="#F9F9FA" transform="translate(0,0)"/>
<path d="" fill="#F1F2F2" transform="translate(0,0)"/>
<path d="M0 0 C2 1 2 1 2 1 Z " fill="#F9FAFA" transform="translate(532,516)"/>
<path d="M0 0 C2 1 2 1 2 1 Z " fill="#FAFBFC" transform="translate(430,491)"/>
<path d="M0 0 C2 1 2 1 2 1 Z " fill="#F7F5F5" transform="translate(637,487)"/>
<path d="M0 0 C2 1 2 1 2 1 Z " fill="#F7F8F8" transform="translate(630,487)"/>
<path d="M0 0 C2 1 2 1 2 1 Z " fill="#FAFAF9" transform="translate(584,487)"/>
<path d="" fill="#FCF9FB" transform="translate(0,0)"/>
<path d="" fill="#F9FAFA" transform="translate(0,0)"/>
<path d="" fill="#F9FBFA" transform="translate(0,0)"/>
<path d="M0 0 C2 1 2 1 2 1 Z " fill="#FBFBFD" transform="translate(360,470)"/>
<path d="M0 0 C2 1 2 1 2 1 Z " fill="#FCFAFB" transform="translate(542,467)"/>
<path d="M0 0 C2 1 2 1 2 1 Z " fill="#F8F9F9" transform="translate(530,465)"/>
<path d="" fill="#F9F9FB" transform="translate(0,0)"/>
<path d="M0 0 C2 1 2 1 2 1 Z " fill="#F7F8F8" transform="translate(643,455)"/>
<path d="M0 0 C2 1 2 1 2 1 Z " fill="#F6F7F9" transform="translate(680,453)"/>
<path d="M0 0 C2 1 2 1 2 1 Z " fill="#FBF9FB" transform="translate(523,452)"/>
<path d="M0 0 C2 1 2 1 2 1 Z " fill="#FAFCFC" transform="translate(550,450)"/>
<path d="M0 0 C2 1 2 1 2 1 Z " fill="#FAFAF9" transform="translate(500,446)"/>
<path d="M0 0 C2 1 2 1 2 1 Z " fill="#E9EAE9" transform="translate(676,428)"/>
<path d="M0 0 C2 1 2 1 2 1 Z " fill="#F0F0F2" transform="translate(548,428)"/>
<path d="M0 0 C2 1 2 1 2 1 Z " fill="#F1F2F2" transform="translate(492,428)"/>
<path d="" fill="#6A6B6A" transform="translate(0,0)"/>
<path d="" fill="#E6E5E8" transform="translate(0,0)"/>
<path d="" fill="#E6E6E4" transform="translate(0,0)"/>
<path d="" fill="#E7E9E7" transform="translate(0,0)"/>
<path d="" fill="#E7E8E8" transform="translate(0,0)"/>
<path d="" fill="#E8E9E8" transform="translate(0,0)"/>
<path d="" fill="#E1E2E2" transform="translate(0,0)"/>
<path d="" fill="#EBECED" transform="translate(0,0)"/>
<path d="" fill="#ECEFED" transform="translate(0,0)"/>
<path d="" fill="#EBECEA" transform="translate(0,0)"/>
<path d="" fill="#EFF1F1" transform="translate(0,0)"/>
<path d="" fill="#F0F4F1" transform="translate(0,0)"/>
<path d="" fill="#EEECEE" transform="translate(0,0)"/>
<path d="" fill="#EDEEF0" transform="translate(0,0)"/>
<path d="" fill="#E9EDEE" transform="translate(0,0)"/>
<path d="" fill="#F0F2F2" transform="translate(0,0)"/>
<path d="" fill="#ECEDEE" transform="translate(0,0)"/>
<path d="" fill="#F0F1F1" transform="translate(0,0)"/>
<path d="" fill="#EEEEED" transform="translate(0,0)"/>
<path d="" fill="#F0EFEF" transform="translate(0,0)"/>
<path d="" fill="#F3F2F1" transform="translate(0,0)"/>
<path d="" fill="#EFEFEF" transform="translate(0,0)"/>
<path d="" fill="#EFF2F1" transform="translate(0,0)"/>
<path d="" fill="#F0F1F3" transform="translate(0,0)"/>
<path d="" fill="#ECEEF2" transform="translate(0,0)"/>
<path d="" fill="#EAEAE9" transform="translate(0,0)"/>
<path d="" fill="#EDEDEE" transform="translate(0,0)"/>
<path d="" fill="#EBEEEC" transform="translate(0,0)"/>
<path d="" fill="#F0F0F1" transform="translate(0,0)"/>
<path d="" fill="#F0F0F2" transform="translate(0,0)"/>
<path d="" fill="#F2F0F1" transform="translate(0,0)"/>
<path d="" fill="#F4F4F3" transform="translate(0,0)"/>
<path d="" fill="#F4F3F5" transform="translate(0,0)"/>
<path d="" fill="#F4F1F4" transform="translate(0,0)"/>
<path d="" fill="#E2E4E4" transform="translate(0,0)"/>
<path d="" fill="#EEEFF0" transform="translate(0,0)"/>
<path d="" fill="#F5F6F6" transform="translate(0,0)"/>
<path d="" fill="#F8F8F6" transform="translate(0,0)"/>
<path d="" fill="#F2F3F3" transform="translate(0,0)"/>
<path d="" fill="#F1F3F2" transform="translate(0,0)"/>
<path d="" fill="#FAFBFA" transform="translate(0,0)"/>
<path d="" fill="#FBFAFA" transform="translate(0,0)"/>
<path d="" fill="#F5F5F5" transform="translate(0,0)"/>
<path d="" fill="#F1F0F3" transform="translate(0,0)"/>
<path d="" fill="#F5F5F6" transform="translate(0,0)"/>
<path d="" fill="#FAFAFA" transform="translate(0,0)"/>
<path d="" fill="#F3F4F6" transform="translate(0,0)"/>
<path d="" fill="#F1F1F0" transform="translate(0,0)"/>
<path d="" fill="#F1F3F4" transform="translate(0,0)"/>
<path d="" fill="#F3F4F3" transform="translate(0,0)"/>
<path d="" fill="#F4F4F5" transform="translate(0,0)"/>
<path d="" fill="#F3F3F5" transform="translate(0,0)"/>
<path d="" fill="#F5F5F6" transform="translate(0,0)"/>
<path d="" fill="#F4F6F5" transform="translate(0,0)"/>
<path d="" fill="#F1F3F2" transform="translate(0,0)"/>
<path d="" fill="#F7F8F7" transform="translate(0,0)"/>
<path d="" fill="#F4F6F8" transform="translate(0,0)"/>
<path d="" fill="#F8FAF8" transform="translate(0,0)"/>
<path d="" fill="#F4F3F3" transform="translate(0,0)"/>
<path d="" fill="#F5F7F7" transform="translate(0,0)"/>
<path d="" fill="#F8F8F7" transform="translate(0,0)"/>
<path d="" fill="#F7F7F9" transform="translate(0,0)"/>
<path d="" fill="#F4F6F7" transform="translate(0,0)"/>
<path d="" fill="#F9F9FA" transform="translate(0,0)"/>
<path d="" fill="#F9F9FA" transform="translate(0,0)"/>
<path d="" fill="#F6F8FA" transform="translate(0,0)"/>
<path d="" fill="#FAF8FB" transform="translate(0,0)"/>
<path d="" fill="#FCFBFC" transform="translate(0,0)"/>
<path d="" fill="#EFF1F2" transform="translate(0,0)"/>
<path d="" fill="#FEFFFF" transform="translate(0,0)"/>
<path d="" fill="#F8FAF9" transform="translate(0,0)"/>
<path d="" fill="#FDFEFE" transform="translate(0,0)"/>
<path d="" fill="#F2F1F3" transform="translate(0,0)"/>
<path d="" fill="#FAF9FA" transform="translate(0,0)"/>
<path d="" fill="#F0F2F3" transform="translate(0,0)"/>
<path d="" fill="#FCFEFE" transform="translate(0,0)"/>
<path d="" fill="#F4F4F6" transform="translate(0,0)"/>
<path d="" fill="#FDFCFD" transform="translate(0,0)"/>
<path d="" fill="#FAFBFA" transform="translate(0,0)"/>
<path d="" fill="#F9FBFA" transform="translate(0,0)"/>
<path d="" fill="#FAFAFB" transform="translate(0,0)"/>
<path d="" fill="#FAFBFC" transform="translate(0,0)"/>
<path d="" fill="#FAFBFA" transform="translate(0,0)"/>
<path d="" fill="#F7F7F7" transform="translate(0,0)"/>
<path d="" fill="#FAFBFA" transform="translate(0,0)"/>
<path d="" fill="#FBFBFC" transform="translate(0,0)"/>
<path d="" fill="#F9F9F8" transform="translate(0,0)"/>
<path d="" fill="#FAFBFC" transform="translate(0,0)"/>
<path d="" fill="#FAFAFC" transform="translate(0,0)"/>
<path d="" fill="#F9FBFA" transform="translate(0,0)"/>
<path d="" fill="#FAF8FA" transform="translate(0,0)"/>
<path d="" fill="#FBFBFB" transform="translate(0,0)"/>
<path d="" fill="#FAFAFC" transform="translate(0,0)"/>
<path d="" fill="#F8F8F8" transform="translate(0,0)"/>
<path d="" fill="#F9FAFA" transform="translate(0,0)"/>
<path d="" fill="#F8F9F9" transform="translate(0,0)"/>
<path d="" fill="#F7F8FA" transform="translate(0,0)"/>
<path d="" fill="#FBFAFC" transform="translate(0,0)"/>
<path d="" fill="#F9F9FA" transform="translate(0,0)"/>
<path d="" fill="#FBFBFC" transform="translate(0,0)"/>
<path d="" fill="#FBFBFD" transform="translate(0,0)"/>
<path d="" fill="#FDFEFE" transform="translate(0,0)"/>
<path d="" fill="#F7F9F7" transform="translate(0,0)"/>
<path d="" fill="#F6F6F8" transform="translate(0,0)"/>
<path d="" fill="#F6F9F8" transform="translate(0,0)"/>
<path d="" fill="#FAFAFB" transform="translate(0,0)"/>
<path d="" fill="#FAF8F9" transform="translate(0,0)"/>
<path d="" fill="#FAF9FC" transform="translate(0,0)"/>
<path d="" fill="#F7F7FA" transform="translate(0,0)"/>
<path d="" fill="#FCFCFB" transform="translate(0,0)"/>
<path d="" fill="#FAFAFC" transform="translate(0,0)"/>
<path d="" fill="#FBFEFF" transform="translate(0,0)"/>
<path d="" fill="#F7F8F9" transform="translate(0,0)"/>
<path d="" fill="#F9F9FA" transform="translate(0,0)"/>
<path d="" fill="#FAFAFB" transform="translate(0,0)"/>
<path d="" fill="#FBF8FC" transform="translate(0,0)"/>
<path d="" fill="#F8FAFA" transform="translate(0,0)"/>
<path d="" fill="#FDFFFF" transform="translate(0,0)"/>
<path d="" fill="#FAF9FB" transform="translate(0,0)"/>
<path d="" fill="#FCFDFC" transform="translate(0,0)"/>
<path d="" fill="#F8F8FB" transform="translate(0,0)"/>
<path d="" fill="#F3F3F2" transform="translate(0,0)"/>
<path d="" fill="#FAF8FC" transform="translate(0,0)"/>
<path d="" fill="#F9FBFB" transform="translate(0,0)"/>
<path d="" fill="#F9FBFC" transform="translate(0,0)"/>
<path d="" fill="#FBFCFD" transform="translate(0,0)"/>
<path d="" fill="#FCFAFB" transform="translate(0,0)"/>
<path d="" fill="#FBFDFC" transform="translate(0,0)"/>
<path d="" fill="#EAEAEA" transform="translate(0,0)"/>
<path d="" fill="#FDFAFC" transform="translate(0,0)"/>
<path d="" fill="#FBFCFE" transform="translate(0,0)"/>
<path d="" fill="#FDFAFD" transform="translate(0,0)"/>
<path d="" fill="#F9FAFB" transform="translate(0,0)"/>
<path d="" fill="#F8F7FA" transform="translate(0,0)"/>
<path d="" fill="#FCFCFD" transform="translate(0,0)"/>
<path d="" fill="#FCFCFB" transform="translate(0,0)"/>
<path d="" fill="#F9FBFC" transform="translate(0,0)"/>
<path d="" fill="#FAFCFC" transform="translate(0,0)"/>
<path d="" fill="#FAFBFC" transform="translate(0,0)"/>
<path d="" fill="#F2F1F2" transform="translate(0,0)"/>
<path d="" fill="#FAFBFB" transform="translate(0,0)"/>
<path d="" fill="#F0F2F1" transform="translate(0,0)"/>
<path d="" fill="#FDFCFC" transform="translate(0,0)"/>
<path d="" fill="#F3F2F2" transform="translate(0,0)"/>
<path d="" fill="#FBFCFB" transform="translate(0,0)"/>
<path d="" fill="#F9FAFC" transform="translate(0,0)"/>
<path d="" fill="#FBFBFC" transform="translate(0,0)"/>
<path d="" fill="#FBFAFB" transform="translate(0,0)"/>
<path d="" fill="#FAFBFB" transform="translate(0,0)"/>
<path d="" fill="#F3F4F5" transform="translate(0,0)"/>
<path d="" fill="#F9F9FC" transform="translate(0,0)"/>
<path d="" fill="#F7F8F9" transform="translate(0,0)"/>
<path d="" fill="#F1F2F3" transform="translate(0,0)"/>
<path d="" fill="#F2F3F5" transform="translate(0,0)"/>
<path d="" fill="#FAF9FA" transform="translate(0,0)"/>
<path d="" fill="#FCFAFB" transform="translate(0,0)"/>
<path d="" fill="#F8F7F9" transform="translate(0,0)"/>
<path d="" fill="#FBF8FB" transform="translate(0,0)"/>
<path d="" fill="#F9FBF9" transform="translate(0,0)"/>
<path d="" fill="#F8F9FC" transform="translate(0,0)"/>
<path d="" fill="#F4F2F5" transform="translate(0,0)"/>
<path d="" fill="#FAF9FB" transform="translate(0,0)"/>
<path d="" fill="#FAFBFB" transform="translate(0,0)"/>
<path d="" fill="#F7F6F6" transform="translate(0,0)"/>
<path d="" fill="#FAF9F9" transform="translate(0,0)"/>
<path d="" fill="#F9FBFB" transform="translate(0,0)"/>
<path d="" fill="#FAFDFB" transform="translate(0,0)"/>
<path d="" fill="#F8F7FA" transform="translate(0,0)"/>
<path d="" fill="#F8F8F8" transform="translate(0,0)"/>
<path d="" fill="#FBFAF9" transform="translate(0,0)"/>
<path d="" fill="#FAFAFA" transform="translate(0,0)"/>
<path d="" fill="#F9FAFB" transform="translate(0,0)"/>
<path d="" fill="#F9FBFD" transform="translate(0,0)"/>
<path d="" fill="#FBFDFE" transform="translate(0,0)"/>
<path d="" fill="#F5F4F3" transform="translate(0,0)"/>
<path d="" fill="#F5F5F6" transform="translate(0,0)"/>
<path d="" fill="#F4F5F6" transform="translate(0,0)"/>
<path d="" fill="#F3F4F3" transform="translate(0,0)"/>
<path d="" fill="#ECEDED" transform="translate(0,0)"/>
<path d="" fill="#F0F1F3" transform="translate(0,0)"/>
<path d="" fill="#F3F3F2" transform="translate(0,0)"/>
<path d="" fill="#F1F1F2" transform="translate(0,0)"/>
<path d="" fill="#F2F3F3" transform="translate(0,0)"/>
</svg>
